<?xml version="1.0" encoding="UTF-8"?>
<svg id="_レイヤー_2" data-name="レイヤー 2" xmlns="http://www.w3.org/2000/svg" viewBox="0 0 36.69 29.87">
  <defs>
    <style>
      .cls-1, .cls-2 {
        fill: #fff;
      }

      .cls-3 {
        fill: #e61f19;
      }

      .cls-4 {
        fill: none;
      }

      .cls-4, .cls-2 {
        stroke: #e61f19;
        stroke-miterlimit: 10;
        stroke-width: 1.87px;
      }
    </style>
  </defs>
  <g id="_レイヤー_1-2" data-name="レイヤー 1">
    <g>
      <polygon class="cls-2" points="35.75 28.94 3.79 28.94 3.79 .93 20.25 .93 24.98 .93 35.75 8.04 35.75 8.04 35.75 28.94"/>
      <path class="cls-3" d="M33.13,21.06c0,.55-.46.99-1.02.99H1.02c-.56,0-1.02-.45-1.02-.99v-11.59c0-.55.46-.99,1.02-.99h31.09c.56,0,1.02.45,1.02.99v11.59Z"/>
      <polyline class="cls-4" points="35.31 9.16 24.83 9.16 24.83 1.26"/>
      <g>
        <path class="cls-1" d="M3.55,20.89v-11.12h3.37c.83,0,1.57.11,2.2.32.63.22,1.13.57,1.5,1.06.37.49.55,1.16.55,2s-.18,1.47-.54,1.99-.86.91-1.49,1.16c-.63.26-1.35.38-2.17.38h-1.68v4.21h-1.75ZM5.31,15.26h1.52c.88,0,1.53-.17,1.96-.51s.65-.88.65-1.6-.23-1.26-.68-1.54c-.45-.28-1.12-.42-2.01-.42h-1.45v4.08Z"/>
        <path class="cls-1" d="M13.34,20.89v-11.12h2.88c1.15,0,2.12.21,2.91.63.79.42,1.4,1.03,1.82,1.85s.63,1.83.63,3.05-.21,2.23-.63,3.06c-.42.84-1.02,1.47-1.8,1.89s-1.73.64-2.84.64h-2.97ZM15.09,19.46h1.01c.79,0,1.47-.16,2.02-.47.55-.31.96-.78,1.24-1.4.28-.62.42-1.39.42-2.3s-.14-1.69-.42-2.29c-.28-.6-.69-1.05-1.24-1.35s-1.22-.45-2.02-.45h-1.01v8.26Z"/>
        <path class="cls-1" d="M23.89,20.89v-11.12h6.58v1.48h-4.83v3.4h4.12v1.46h-4.12v4.79h-1.75Z"/>
      </g>
    </g>
  </g>
</svg>